<!-- icon666.com - MILLIONS OF FREE VECTOR ICONS --><svg enable-background="new 0 0 64 64" viewBox="0 0 64 64" xmlns="http://www.w3.org/2000/svg"><g id="_x32_5-Mail"><g><path d="m60.3511353 16h-39.2473145l19.6237183 17.1708984z"></path><path d="m19.7275391 17.4542847v29.0914917l16.6235351-14.5458985z"></path><path d="m41.3862305 35.2529297c-.1884766.1650391-.4238282.2470703-.6586914.2470703s-.4702148-.0820313-.6586914-.2470703l-2.1986084-1.9237671-16.7662964 14.6708374h39.2470703l-16.7664185-14.6706543z"></path><path d="m45.1037598 32.000061 16.6237793 14.5458374v-29.0917358z"></path><path d="m15.2226563 31h-11.9501954c-.5522461 0-1 .4472656-1 1s.4477539 1 1 1h11.9501953c.5522461 0 1-.4472656 1-1s-.4477539-1-.9999999-1z"></path><path d="m15.2226563 38h-7.9750977c-.5522461 0-1 .4472656-1 1s.4477539 1 1 1h7.9750977c.5522461 0 1-.4472656 1-1s-.447754-1-1-1z"></path><path d="m15.2226563 24h-7.9750977c-.5522461 0-1 .4472656-1 1s.4477539 1 1 1h7.9750977c.5522461 0 1-.4472656 1-1s-.447754-1-1-1z"></path></g></g></svg>