<!DOCTYPE svg PUBLIC "-//W3C//DTD SVG 1.1//EN" "http://www.w3.org/2000/svg">

<!-- Uploaded to: SVG Repo, www.svgrepo.com, Transformed by: SVG Repo Mixer Tools -->
<svg fill="#000000" version="1.1" id="Layer_1" xmlns="http://www.w3.org/2000/svg" viewBox="0 0 395.313 395.313" xml:space="preserve" width="800px" height="800px">

<g id="SVGRepo_bgCarrier" stroke-width="0"/>

<g id="SVGRepo_tracerCarrier" stroke-linecap="round" stroke-linejoin="round"/>

<g id="SVGRepo_iconCarrier"> <g> <g> <rect x="124.36" y="137.313" transform="matrix(-0.7071 0.7071 -0.7071 -0.7071 393.0408 302.726)" width="18.927" height="190.903"/> <rect x="-1.057" y="152.124" transform="matrix(0.7071 -0.7071 0.7071 0.7071 -106.8205 71.1315)" width="67.021" height="24.771"/> <rect x="67.93" y="28.449" transform="matrix(0.7071 0.7071 -0.7071 0.7071 55.6255 -36.3027)" width="7.407" height="41.091"/> <rect x="90.799" y="170.874" transform="matrix(0.7071 -0.7071 0.7071 0.7071 -158.9546 148.9012)" width="18.927" height="190.903"/> <polygon points="76.124,72.823 85.658,63.29 80.44,58.072 66.053,72.46 162.217,168.413 176.435,154.067 170.865,148.497 161.336,158.025 157.829,154.518 167.357,144.989 161.787,139.419 152.259,148.952 148.751,145.445 158.28,135.912 152.709,130.341 143.176,139.869 139.668,136.362 149.202,126.834 143.631,121.263 134.103,130.792 130.596,127.284 140.124,117.756 134.554,112.186 125.02,121.719 121.513,118.212 131.046,108.678 125.476,103.108 115.947,112.636 112.44,109.129 121.969,99.601 116.398,94.03 106.87,103.563 103.362,100.056 112.891,90.523 107.32,84.952 97.787,94.481 94.28,90.973 103.813,81.445 98.242,75.875 88.714,85.403 85.207,81.896 94.735,72.367 89.165,66.797 79.631,76.33 "/> <path d="M288.87,176.365l1.362,4.511c0.829,0.445,1.833,1.096,3.021,1.946c1.183,0.85,2.202,1.7,3.041,2.545 c4.664,4.664,5.238,8.755,1.72,12.268c-3.692,3.692-7.793,3.287-12.293-1.219c-1.495-1.495-2.867-3.292-4.116-5.381 c-1.249-2.094-2.171-4.101-2.76-6.026l-6.374,6.374c1.131,3.645,3.635,7.409,7.521,11.295c4.475,4.475,8.96,6.861,13.466,7.163 c4.506,0.302,8.704-1.495,12.605-5.396c3.297-3.297,4.89-6.886,4.792-10.783c-0.108-3.891-1.843-7.521-5.217-10.895 c-1.434-1.434-2.744-2.524-3.937-3.272l-1.003-0.666l7.496-6.211l12.462,12.462l6.257-6.257l-18.934-18.934L288.87,176.365z"/> <polygon points="214.6,300.156 167.654,347.101 189.292,352.698 220.191,321.798 "/> <path d="M346.9,139.593c-26.353-26.353-69.233-26.353-95.585,0c-26.353,26.353-26.353,69.233,0,95.585 c26.353,26.353,69.233,26.353,95.585,0C373.253,208.826,373.253,165.946,346.9,139.593z M338.268,226.551 c-21.596,21.596-56.735,21.596-78.331,0c-21.596-21.596-21.596-56.735,0-78.331s56.735-21.596,78.331,0 S359.864,204.955,338.268,226.551z"/> <path d="M367.242,119.251c-37.427-37.427-98.115-37.427-135.542,0l-60.646,60.646c-4.342,4.342-4.342,11.377,0,15.718 l119.823,119.823c4.342,4.342,11.377,4.342,15.718,0l60.646-60.646C404.669,217.366,404.669,156.678,367.242,119.251z M205.251,195.841c-4.367,4.367-11.453,4.367-15.821,0c-4.367-4.367-4.367-11.453,0-15.821c4.367-4.367,11.453-4.367,15.821,0 C209.618,184.388,209.618,191.474,205.251,195.841z M306.473,297.064c-4.367,4.367-11.453,4.367-15.821,0 c-4.367-4.367-4.367-11.453,0-15.821c4.367-4.367,11.453-4.367,15.821,0C310.84,285.61,310.84,292.696,306.473,297.064z M354.437,242.725c-30.561,30.561-80.108,30.561-110.669,0s-30.561-80.108,0-110.669s80.108-30.561,110.669,0 C384.998,162.618,384.998,212.164,354.437,242.725z"/> <polygon points="196.634,354.587 230.968,363.465 222.09,329.13 "/> </g> </g> </g>

</svg>