<!DOCTYPE svg PUBLIC "-//W3C//DTD SVG 1.1//EN" "http://www.w3.org/2000/svg">

<!-- Uploaded to: SVG Repo, www.svgrepo.com, Transformed by: SVG Repo Mixer Tools -->
<svg version="1.1" id="Layer_1" xmlns="http://www.w3.org/2000/svg" viewBox="0 0 512.003 512.003" xml:space="preserve" width="800px" height="800px" fill="#000000">

<g id="SVGRepo_bgCarrier" stroke-width="0"/>

<g id="SVGRepo_tracerCarrier" stroke-linecap="round" stroke-linejoin="round"/>

<g id="SVGRepo_iconCarrier"> <polygon style="fill:#F8E99B;" points="118.859,27.429 18.286,18.285 27.43,118.858 164.573,255.999 255.999,164.573 "/> <polygon style="fill:#F6E27D;" points="118.861,27.43 18.287,18.286 210.288,210.287 255.999,164.573 "/> <rect x="267.627" y="319.331" transform="matrix(-0.7071 -0.7071 0.7071 -0.7071 384.0055 927.0206)" style="fill:#F8E99B;" width="232.737" height="129.298"/> <rect x="290.482" y="328.818" transform="matrix(-0.7071 -0.7071 0.7071 -0.7071 439.1703 904.1945)" style="fill:#F6E27D;" width="232.737" height="64.649"/> <rect x="191.352" y="-41.388" transform="matrix(-0.7071 -0.7071 0.7071 -0.7071 256.0044 618.0353)" style="fill:#95D5A7;" width="129.298" height="594.772"/> <g> <rect x="202.704" y="209.184" transform="matrix(-0.7071 -0.7071 0.7071 -0.7071 228.5534 551.8284)" style="fill:#88888F;" width="51.719" height="38.789"/> <rect x="163.473" y="248.423" transform="matrix(-0.7072 0.7071 -0.7071 -0.7072 506.1201 338.9471)" style="fill:#88888F;" width="38.792" height="51.723"/> <rect x="117.736" y="294.151" transform="matrix(-0.7071 0.7071 -0.7071 -0.7071 460.3776 449.3265)" style="fill:#88888F;" width="38.789" height="51.719"/> <rect x="254.887" y="156.998" transform="matrix(-0.7071 0.7071 -0.7071 -0.7071 597.5284 118.2101)" style="fill:#88888F;" width="38.789" height="51.719"/> <rect x="300.609" y="111.291" transform="matrix(-0.7071 0.7071 -0.7071 -0.7071 643.261 7.8548)" style="fill:#88888F;" width="38.789" height="51.719"/> </g> <polygon style="fill:#EBE4DD;" points="18.286,18.285 27.43,118.857 118.856,27.43 "/> <g> <rect x="364.595" y="267.648" transform="matrix(-0.7071 0.7071 -0.7071 -0.7071 927.0526 384.0349)" style="fill:#88888F;" width="38.789" height="232.737"/> <rect x="122.314" y="44.739" transform="matrix(-0.7071 0.7071 -0.7071 -0.7071 342.1184 141.7158)" style="fill:#88888F;" width="38.789" height="193.947"/> <polygon style="fill:#88888F;" points="18.287,18.286 22.859,68.572 68.573,22.86 "/> </g> <rect x="246.534" y="-18.523" transform="matrix(0.7071 0.7071 -0.7071 0.7071 278.8617 -115.5059)" style="fill:#80CB93;" width="64.649" height="594.772"/> </g>

</svg>